<svg xmlns="http://www.w3.org/2000/svg" viewBox="0 0 180 180">
  <defs>
    <radialGradient id="glow" cx="50%" cy="50%" r="60%">
      <stop offset="0%" stop-color="#7FDBDA" stop-opacity="0.18"/>
      <stop offset="100%" stop-color="#0a1518" stop-opacity="0"/>
    </radialGradient>
  </defs>
  <rect width="180" height="180" rx="36" fill="#0a1518"/>
  <rect width="180" height="180" rx="36" fill="url(#glow)"/>

  <!-- corner viewfinder brackets -->
  <g stroke="#7FDBDA" stroke-width="2" fill="none" opacity="0.55" stroke-linecap="square">
    <polyline points="18,32 18,18 32,18"/>
    <polyline points="148,18 162,18 162,32"/>
    <polyline points="162,148 162,162 148,162"/>
    <polyline points="32,162 18,162 18,148"/>
  </g>

  <!-- Letter A -->
  <path d="M90 42 L138 144 L117 144 L107.8 122 L72.2 122 L63 144 L42 144 Z M81 109 L99 109 L90 84 Z" fill="#F4F4EC"/>

  <!-- Crosshair targeting reticle (top right inside frame) -->
  <g stroke="#7FDBDA" stroke-width="1.6" fill="none" opacity="0.9">
    <circle cx="142" cy="38" r="7"/>
    <line x1="142" y1="26" x2="142" y2="32"/>
    <line x1="142" y1="44" x2="142" y2="50"/>
    <line x1="130" y1="38" x2="136" y2="38"/>
    <line x1="148" y1="38" x2="154" y2="38"/>
  </g>
  <circle cx="142" cy="38" r="1.8" fill="#7FDBDA"/>

  <!-- bottom label hairline -->
  <line x1="42" y1="156" x2="138" y2="156" stroke="#7FDBDA" stroke-width="0.8" opacity="0.3"/>
</svg>
